<svg width="98" height="20" viewBox="0 0 98 20" fill="none" xmlns="http://www.w3.org/2000/svg">
<path d="M6.096 19.336C4.32 19.336 3.016 18.448 2.184 16.672C1.368 14.896 0.96 12.648 0.96 9.928C0.96 8.408 1.152 6.944 1.536 5.536C1.936 4.128 2.568 2.968 3.432 2.056C4.312 1.128 5.432 0.663999 6.792 0.663999C7.96 0.663999 8.928 0.951999 9.696 1.528C10.48 2.088 11.056 2.84 11.424 3.784C11.808 4.712 12 5.744 12 6.88L8.664 7.096L8.592 6.592C8.496 5.648 8.328 4.896 8.088 4.336C7.848 3.776 7.4 3.496 6.744 3.496C5.912 3.496 5.32 4.168 4.968 5.512C4.632 6.84 4.464 8.376 4.464 10.12C4.464 11.352 4.504 12.4 4.584 13.264C4.664 14.128 4.872 14.888 5.208 15.544C5.544 16.184 6.064 16.504 6.768 16.504C7.36 16.504 7.824 16.136 8.16 15.4C8.512 14.664 8.688 13.76 8.688 12.688H6.912L7.2 10H12.072V18.856L10.728 19L9.912 15.664C9.768 16.288 9.584 16.848 9.36 17.344C9.152 17.84 8.784 18.296 8.256 18.712C7.728 19.128 7.008 19.336 6.096 19.336ZM19.0256 19.312C17.4256 19.312 16.2016 18.68 15.3536 17.416C14.5056 16.136 14.0816 14.44 14.0816 12.328C14.0816 10.184 14.5136 8.48 15.3776 7.216C16.2416 5.952 17.4976 5.32 19.1456 5.32C20.7136 5.32 21.9136 5.952 22.7456 7.216C23.5776 8.48 23.9936 10.184 23.9936 12.328C23.9936 12.456 23.9696 12.552 23.9216 12.616C23.8736 12.664 23.8496 12.696 23.8496 12.712H17.4416C17.4416 13.752 17.5776 14.704 17.8496 15.568C18.1216 16.416 18.5376 16.84 19.0976 16.84C19.7216 16.84 20.1856 16.48 20.4896 15.76C20.7936 15.04 20.9536 14.664 20.9696 14.632L23.5136 15.592C23.1776 16.744 22.6416 17.656 21.9056 18.328C21.1696 18.984 20.2096 19.312 19.0256 19.312ZM20.6816 10.768C20.6816 9.808 20.5536 9.048 20.2976 8.488C20.0416 7.928 19.6416 7.648 19.0976 7.648C18.8256 7.648 18.5616 7.784 18.3056 8.056C18.0496 8.328 17.8416 8.704 17.6816 9.184C17.5216 9.664 17.4416 10.192 17.4416 10.768H20.6816ZM30.6345 19.264C29.5465 19.264 28.6265 18.992 27.8745 18.448C27.1225 17.888 26.7465 16.904 26.7465 15.496V8.032H24.8745L25.0185 5.488H26.8425L27.1785 2.56L30.1065 2.152V5.488H32.8905L32.7465 8.032H30.1305V15.472C30.1305 15.952 30.2505 16.296 30.4905 16.504C30.7305 16.712 31.0825 16.816 31.5465 16.816C31.8025 16.816 32.2345 16.768 32.8425 16.672V19C32.7785 19.016 32.5225 19.064 32.0745 19.144C31.6425 19.224 31.1625 19.264 30.6345 19.264ZM34.8909 0.999999H38.9229C41.0989 0.999999 42.6829 1.424 43.6749 2.272C44.6669 3.12 45.1629 4.24 45.1629 5.632C45.1629 6.512 44.9869 7.288 44.6349 7.96C44.2989 8.632 43.8269 9.12 43.2189 9.424C43.9869 9.824 44.5949 10.36 45.0429 11.032C45.4909 11.688 45.7149 12.664 45.7149 13.96C45.7149 17.32 43.0669 19 37.7709 19H34.8909V0.999999ZM39.1389 8.32C40.0669 8.32 40.7549 8.168 41.2029 7.864C41.6669 7.56 41.8989 6.936 41.8989 5.992C41.8989 5.16 41.6349 4.592 41.1069 4.288C40.5949 3.968 39.8909 3.808 38.9949 3.808H38.2989V8.32H39.1389ZM39.0669 16.192C40.2189 16.192 41.0509 15.912 41.5629 15.352C42.0749 14.776 42.3309 14.152 42.3309 13.48C42.3309 12.44 42.0509 11.752 41.4909 11.416C40.9469 11.064 40.1789 10.888 39.1869 10.888H38.4189V16.192H39.0669ZM47.8937 5.776L51.2537 5.488V7.672C51.7337 6.984 52.3257 6.432 53.0297 6.016C53.7497 5.584 54.6617 5.368 55.7657 5.368V8.656C55.1897 8.656 54.4297 8.76 53.4857 8.968C52.5577 9.16 51.8137 9.504 51.2537 10V18.856L47.8937 19.144V5.776ZM59.8048 19.312C59.2288 19.312 58.7088 19.136 58.2448 18.784C57.7808 18.416 57.4208 17.928 57.1648 17.32C56.9088 16.696 56.7808 16 56.7808 15.232C56.7808 13.488 57.3728 12.264 58.5568 11.56C59.7568 10.84 61.1488 10.432 62.7328 10.336C62.7328 9.472 62.6768 8.832 62.5648 8.416C62.4528 8 62.1808 7.792 61.7488 7.792C61.3808 7.792 61.1008 7.936 60.9088 8.224C60.7168 8.512 60.5968 8.88 60.5488 9.328L57.2608 8.752C57.4208 7.52 57.9248 6.64 58.7728 6.112C59.6208 5.584 60.6128 5.32 61.7488 5.32C63.2048 5.32 64.2928 5.704 65.0128 6.472C65.7488 7.24 66.1168 8.24 66.1168 9.472V16.456C66.1168 17.208 66.2368 18.008 66.4768 18.856L63.1888 19.144L62.8048 17.488C62.5168 18 62.0928 18.432 61.5328 18.784C60.9728 19.136 60.3968 19.312 59.8048 19.312ZM61.3648 16.912C61.6368 16.912 61.8608 16.848 62.0368 16.72C62.2288 16.592 62.4608 16.384 62.7328 16.096V12.352C61.9328 12.352 61.2928 12.568 60.8128 13C60.3328 13.432 60.0928 14.104 60.0928 15.016C60.0928 15.624 60.1968 16.096 60.4048 16.432C60.6288 16.752 60.9488 16.912 61.3648 16.912ZM68.8937 5.776L72.2537 5.488V7.216C72.9417 6.608 73.6137 6.144 74.2697 5.824C74.9417 5.488 75.5577 5.32 76.1177 5.32C76.9657 5.32 77.6537 5.632 78.1817 6.256C78.7257 6.864 78.9977 7.688 78.9977 8.728V18.856L75.6377 19.144V10C75.6377 8.8 75.2297 8.2 74.4137 8.2C74.1417 8.2 73.8377 8.28 73.5017 8.44C73.1817 8.6 72.7657 8.832 72.2537 9.136V18.856L68.8937 19.144V5.776ZM85.1192 19.312C82.5272 19.312 81.2312 16.96 81.2312 12.256C81.2312 9.808 81.5512 8.04 82.1912 6.952C82.8312 5.864 83.8312 5.32 85.1912 5.32C85.7672 5.32 86.3192 5.512 86.8472 5.896C87.3752 6.264 87.7592 6.728 87.9992 7.288V1.432L91.3832 0.999999V18.856L88.8392 19.144L87.9992 17.32C87.8392 17.912 87.5432 18.392 87.1112 18.76C86.6792 19.128 86.0152 19.312 85.1192 19.312ZM86.3672 16.912C86.8472 16.912 87.2392 16.648 87.5432 16.12C87.8472 15.576 87.9992 14.664 87.9992 13.384V8.872C87.5352 8.152 86.9912 7.792 86.3672 7.792C85.8392 7.792 85.4472 7.984 85.1912 8.368C84.9512 8.736 84.7912 9.224 84.7112 9.832C84.6472 10.44 84.6152 11.248 84.6152 12.256C84.6152 13.28 84.6472 14.112 84.7112 14.752C84.7912 15.392 84.9592 15.912 85.2152 16.312C85.4712 16.712 85.8552 16.912 86.3672 16.912ZM93.9891 19.144V15.616H97.3491V18.856L93.9891 19.144Z" fill="white"/>
</svg>
